<svg width="48" height="48" xmlns="http://www.w3.org/2000/svg">

 <g>
  <title>background</title>
  <rect fill="none" id="canvas_background" height="402" width="582" y="-1" x="-1"/>
 </g>
 <g>
  <title>Layer 1</title>
  <path id="svg_2" fill="#ffffff" d="m16.601,18.577999c0.106001,0 0.210001,-0.011999 0.316,-0.015999c-0.084999,-0.597 -0.145,-1.201 -0.145,-1.822001c0,-5.098 3,-9.484 7.324001,-11.523c-1.545,-2.526 -4.319,-4.217 -7.495001,-4.217c-4.854,0 -8.789,3.935 -8.789,8.789c0,4.854 3.934,8.789 8.789,8.789z"/>
  <circle id="svg_3" r="9.763" fill="#ffffff" cy="16.74" cx="29.476"/>
  <path id="svg_4" fill="#ffffff" d="m37.993,26.365c-2.27,2.011 -5.247002,3.241001 -8.518,3.241001c-3.256001,0 -6.220001,-1.219002 -8.487,-3.212002c-5.913001,3.227001 -9.953001,9.700003 -9.953001,17.164999c0,1.176003 0.105,2.323002 0.297,3.440002l36.37,0c0.193001,-1.116001 0.298,-2.264 0.298,-3.438999c0,-7.488003 -4.063,-13.978001 -10.007,-17.195002z"/>
  <path id="svg_5" fill="#ffffff" d="m19.162001,24.205c-0.628,-0.886 -1.153,-1.848999 -1.542,-2.881001c-0.336,0.029001 -0.676001,0.048 -1.02,0.048c-2.932,0 -5.6,-1.097 -7.641001,-2.892c-5.322,2.905001 -8.959,8.733 -8.959,15.453999c0,1.058002 0.095,2.092003 0.267,3.098003l9.062,0c1.306999,-5.548002 4.941,-10.194002 9.833,-12.827002z"/>
 </g>
</svg>