<svg width="20" height="20" xmlns="http://www.w3.org/2000/svg">

 <g>
  <title>background</title>
  <rect fill="none" id="canvas_background" height="402" width="582" y="-1" x="-1"/>
 </g>
 <g>
  <title>Layer 1</title>
  <path id="svg_1" fill="#ffffff" d="m9.5,0c-1.37479,0 -2.5,1.12521 -2.5,2.5c0,0.56336 0.19402,1.08074 0.51172,1.5l-0.01172,0c-1.37479,0 -2.5,1.12521 -2.5,2.5l0,2c0,1.20294 0.86363,2.21505 2,2.44922l0,4.55078c0,0.82843 0.67157,1.5 1.5,1.5l1,0l1,0c0.82843,0 1.5,-0.67157 1.5,-1.5l0,-4.55078c1.13637,-0.23417 2,-1.24628 2,-2.44922l0,-2c0,-1.37479 -1.12521,-2.5 -2.5,-2.5l-0.01172,0c0.317699,-0.41926 0.51172,-0.93664 0.51172,-1.5c0,-1.37479 -1.12521,-2.5 -2.5,-2.5zm0,1c0.83435,0 1.5,0.66565 1.5,1.5c0,0.34177 -0.12212,0.64362 -0.28125,0.85742c-0.15913,0.2138 -0.22991,0.42532 -0.23047,0.64258c0,0.55228 0.44772,1 1,1l0.01172,0c0.83435,0 1.5,0.66565 1.5,1.5l0,2c0,0.65768 -0.4162,1.20551 -1,1.41016l0,-2.91016c0,-0.27614 -0.22386,-0.5 -0.5,-0.5c-0.27614,0 -0.5,0.22386 -0.5,0.5l0,8.5c0,0.27614 -0.22386,0.5 -0.5,0.5l-0.5,0l0,-4.5c0,-0.27614 -0.22386,-0.5 -0.5,-0.5c-0.27614,0 -0.5,0.22386 -0.5,0.5l0,4.5l-0.5,0c-0.27614,0 -0.5,-0.22386 -0.5,-0.5l0,-8.5c0,-0.27614 -0.22386,-0.5 -0.5,-0.5c-0.27614,0 -0.5,0.22386 -0.5,0.5l0,2.91016c-0.5838,-0.20465 -1,-0.752481 -1,-1.41016l0,-2c0,-0.83435 0.66565,-1.5 1.5,-1.5l0.01172,0c0.55228,0 1,-0.44772 1,-1c-0.00056,-0.21726 -0.07134,-0.42878 -0.23047,-0.64258c-0.15913,-0.2138 -0.28125,-0.51565 -0.28125,-0.85742c0,-0.83435 0.66565,-1.5 1.5,-1.5zm-3.5,11.27148c-1.14246,0.18332 -2.17916,0.451771 -3.05664,0.79493c-0.85484,0.3343 -1.56456,0.73458 -2.08398,1.21484c-0.51943,0.48026 -0.85938,1.06946 -0.85938,1.71875c0,0.64929 0.33995,1.238489 0.85938,1.71875c0.51942,0.480261 1.22914,0.880541 2.08398,1.21484c1.70968,0.66861 4.01302,1.06641 6.55664,1.06641c2.54362,0 4.84696,-0.3978 6.556641,-1.06641c0.854839,-0.334299 1.56456,-0.734579 2.08399,-1.21484c0.519419,-0.480261 0.859369,-1.06946 0.859369,-1.71875c0,-0.64929 -0.339951,-1.23849 -0.859369,-1.71875c-0.51943,-0.48026 -1.229151,-0.88054 -2.08399,-1.21484c-0.877481,-0.34316 -1.914181,-0.61161 -3.056641,-0.79493l0,0.949221c1.02781,0.17375 1.95297,0.41809 2.7168,0.7168c0.779681,0.30492 1.394361,0.66631 1.78906,1.03125c0.394701,0.36494 0.55859,0.70513 0.55859,1.03125c0,0.32612 -0.163889,0.666309 -0.55859,1.03125c-0.394699,0.364941 -1.009378,0.726339 -1.78906,1.03125c-1.55937,0.609831 -3.77203,1.001949 -6.2168,1.001949c-2.44477,0 -4.65743,-0.392118 -6.2168,-1.001949c-0.77968,-0.304911 -1.39436,-0.666309 -1.78906,-1.03125c-0.3947,-0.364941 -0.55859,-0.70513 -0.55859,-1.03125c0,-0.32612 0.16389,-0.66631 0.55859,-1.03125c0.3947,-0.36494 1.00938,-0.72633 1.78906,-1.03125c0.76383,-0.29871 1.68899,-0.54305 2.7168,-0.7168l0,-0.949221z"/>
 </g>
</svg>